<svg width="29" height="24" viewBox="0 0 29 24" fill="none" xmlns="http://www.w3.org/2000/svg">
<path d="M27.4694 9.66699H1.53056C0.685253 9.66699 0 10.4893 0 11.5037V11.697C0 12.7114 0.685253 13.5337 1.53056 13.5337H27.4694C28.3147 13.5337 29 12.7114 29 11.697V11.5037C29 10.4893 28.3147 9.66699 27.4694 9.66699Z" fill="black"/>
<path d="M27.4694 19.333H1.53056C0.685253 19.333 0 20.1553 0 21.1697V21.363C0 22.3774 0.685253 23.1997 1.53056 23.1997H27.4694C28.3147 23.1997 29 22.3774 29 21.363V21.1697C29 20.1553 28.3147 19.333 27.4694 19.333Z" fill="black"/>
<path d="M27.4694 0H1.53056C0.685253 0 0 0.822303 0 1.83667V2.03C0 3.04436 0.685253 3.86667 1.53056 3.86667H27.4694C28.3147 3.86667 29 3.04436 29 2.03V1.83667C29 0.822303 28.3147 0 27.4694 0Z" fill="black"/>
</svg>
