<svg width="26" height="26" viewBox="0 0 26 26" fill="none" xmlns="http://www.w3.org/2000/svg">
<path d="M1.08342 15.1679C0.796082 15.1679 0.520509 15.2821 0.317328 15.4853C0.114146 15.6884 0 15.964 0 16.2514V24.9166C0 25.2039 0.114146 25.4795 0.317328 25.6827C0.520509 25.8859 0.796082 26 1.08342 26H9.75081C10.0382 26 10.3137 25.8859 10.5169 25.6827C10.7201 25.4795 10.8342 25.2039 10.8342 24.9166V16.2514C10.8342 15.964 10.7201 15.6884 10.5169 15.4853C10.3137 15.2821 10.0382 15.1679 9.75081 15.1679H1.08342ZM16.2514 15.1679C15.964 15.1679 15.6884 15.2821 15.4853 15.4853C15.2821 15.6884 15.1679 15.964 15.1679 16.2514V24.9166C15.1679 25.2039 15.2821 25.4795 15.4853 25.6827C15.6884 25.8859 15.964 26 16.2514 26H24.9166C25.2039 26 25.4795 25.8859 25.6827 25.6827C25.8859 25.4795 26 25.2039 26 24.9166V16.2514C26 15.964 25.8859 15.6884 25.6827 15.4853C25.4795 15.2821 25.2039 15.1679 24.9166 15.1679H16.2514ZM1.08342 -1.90735e-06C0.796082 -1.90735e-06 0.520509 0.114143 0.317328 0.317326C0.114146 0.520506 0 0.796082 0 1.08342V9.75081C0 10.0382 0.114146 10.3137 0.317328 10.5169C0.520509 10.7201 0.796082 10.8342 1.08342 10.8342H9.75081C10.0382 10.8342 10.3137 10.7201 10.5169 10.5169C10.7201 10.3137 10.8342 10.0382 10.8342 9.75081V1.08342C10.8342 0.796082 10.7201 0.520506 10.5169 0.317326C10.3137 0.114143 10.0382 -1.90735e-06 9.75081 -1.90735e-06H1.08342ZM16.2514 -1.90735e-06C15.964 -1.90735e-06 15.6884 0.114143 15.4853 0.317326C15.2821 0.520506 15.1679 0.796082 15.1679 1.08342V9.75081C15.1679 10.0382 15.2821 10.3137 15.4853 10.5169C15.6884 10.7201 15.964 10.8342 16.2514 10.8342H24.9166C25.2039 10.8342 25.4795 10.7201 25.6827 10.5169C25.8859 10.3137 26 10.0382 26 9.75081V1.08342C26 0.796082 25.8859 0.520506 25.6827 0.317326C25.4795 0.114143 25.2039 -1.90735e-06 24.9166 -1.90735e-06H16.2514Z" fill="white"/>
</svg>
