<svg width="25" height="25" viewBox="0 0 25 25" fill="none" xmlns="http://www.w3.org/2000/svg">
<path d="M21.9061 15.2778H9.18281L9.46688 16.6667H21.117C21.7854 16.6667 22.2809 17.2874 22.1327 17.9392L21.8933 18.9929C22.7045 19.3867 23.2639 20.2183 23.2639 21.1806C23.2639 22.5348 22.1563 23.6304 20.7976 23.6109C19.5032 23.5923 18.4386 22.5418 18.4037 21.2477C18.3846 20.5408 18.6678 19.9001 19.133 19.4444H10.0337C10.4841 19.8857 10.7639 20.5003 10.7639 21.1806C10.7639 22.5614 9.6125 23.6732 8.21745 23.6084C6.97873 23.5509 5.97131 22.5501 5.90621 21.3117C5.85595 20.3554 6.35916 19.5124 7.1237 19.0727L4.07478 4.16669H1.04167C0.466363 4.16669 0 3.70033 0 3.12503V2.43058C0 1.85528 0.466363 1.38892 1.04167 1.38892H5.49171C5.98655 1.38892 6.41306 1.73705 6.51224 2.22182L6.91007 4.16669H23.9579C24.6263 4.16669 25.1218 4.7874 24.9737 5.43922L22.9219 14.467C22.8141 14.9413 22.3925 15.2778 21.9061 15.2778ZM17.7083 8.68058H15.625V6.94447C15.625 6.56092 15.3141 6.25003 14.9306 6.25003H14.2361C13.8526 6.25003 13.5417 6.56092 13.5417 6.94447V8.68058H11.4583C11.0748 8.68058 10.7639 8.99148 10.7639 9.37503V10.0695C10.7639 10.453 11.0748 10.7639 11.4583 10.7639H13.5417V12.5C13.5417 12.8836 13.8526 13.1945 14.2361 13.1945H14.9306C15.3141 13.1945 15.625 12.8836 15.625 12.5V10.7639H17.7083C18.0919 10.7639 18.4028 10.453 18.4028 10.0695V9.37503C18.4028 8.99148 18.0919 8.68058 17.7083 8.68058Z" fill="white"/>
</svg>
